solid 
 facet normal  1.000000e+00  0.000000e+00  0.000000e+00
   outer loop
     vertex  8.000000e+00 -3.522382e+00  1.895475e+00
     vertex  8.000000e+00 -2.891179e+00  2.764251e+00
     vertex  8.000000e+00 -3.127326e+00  2.493959e+00
   endloop
 endfacet
 facet normal  1.000000e+00  0.000000e+00  0.000000e+00
   outer loop
     vertex  8.000000e+00 -3.522382e+00  1.895475e+00
     vertex  8.000000e+00 -3.127326e+00  2.493959e+00
     vertex  8.000000e+00 -3.338293e+00  2.203588e+00
   endloop
 endfacet
 facet normal  1.000000e+00  0.000000e+00  0.000000e+00
   outer loop
     vertex  8.000000e+00 -1.405499e+00  3.744939e+00
     vertex  8.000000e+00 -1.735535e+00  3.603875e+00
     vertex  8.000000e+00 -2.051597e+00  3.433795e+00
   endloop
 endfacet
 facet normal  1.000000e+00  0.000000e+00  0.000000e+00
   outer loop
     vertex  8.000000e+00 -1.405499e+00  3.744939e+00
     vertex  8.000000e+00 -2.051597e+00  3.433795e+00
     vertex  8.000000e+00 -2.351141e+00  3.236068e+00
   endloop
 endfacet
 facet normal  1.000000e+00  0.000000e+00  0.000000e+00
   outer loop
     vertex  8.000000e+00 -1.405499e+00  3.744939e+00
     vertex  8.000000e+00 -2.351141e+00  3.236068e+00
     vertex  8.000000e+00 -2.631755e+00  3.012286e+00
   endloop
 endfacet
 facet normal  1.000000e+00  0.000000e+00  0.000000e+00
   outer loop
     vertex  8.000000e+00 -3.804226e+00  1.236068e+00
     vertex  8.000000e+00 -3.522382e+00  1.895475e+00
     vertex  8.000000e+00 -3.678111e+00  1.572100e+00
   endloop
 endfacet
 facet normal  1.000000e+00  0.000000e+00  0.000000e+00
   outer loop
     vertex  8.000000e+00 -7.142276e-01  3.935718e+00
     vertex  8.000000e+00 -1.064147e+00  3.855851e+00
     vertex  8.000000e+00 -1.405499e+00  3.744939e+00
   endloop
 endfacet
 facet normal  1.000000e+00  0.000000e+00  0.000000e+00
   outer loop
     vertex  8.000000e+00 -7.142276e-01  3.935718e+00
     vertex  8.000000e+00 -2.631755e+00  3.012286e+00
     vertex  8.000000e+00 -2.891179e+00  2.764251e+00
   endloop
 endfacet
 facet normal  1.000000e+00  0.000000e+00  0.000000e+00
   outer loop
     vertex  8.000000e+00 -7.142276e-01  3.935718e+00
     vertex  8.000000e+00 -1.405499e+00  3.744939e+00
     vertex  8.000000e+00 -2.631755e+00  3.012286e+00
   endloop
 endfacet
 facet normal  1.000000e+00  0.000000e+00  0.000000e+00
   outer loop
     vertex  8.000000e+00 -3.963799e+00  5.369331e-01
     vertex  8.000000e+00 -3.804226e+00  1.236068e+00
     vertex  8.000000e+00 -3.899712e+00  8.900837e-01
   endloop
 endfacet
 facet normal  1.000000e+00  0.000000e+00  0.000000e+00
   outer loop
     vertex  8.000000e+00 -3.995972e+00  1.794593e-01
     vertex  8.000000e+00 -2.891179e+00  2.764251e+00
     vertex  8.000000e+00 -3.522382e+00  1.895475e+00
   endloop
 endfacet
 facet normal  1.000000e+00  0.000000e+00  0.000000e+00
   outer loop
     vertex  8.000000e+00 -3.995972e+00  1.794593e-01
     vertex  8.000000e+00 -3.522382e+00  1.895475e+00
     vertex  8.000000e+00 -3.804226e+00  1.236068e+00
   endloop
 endfacet
 facet normal  1.000000e+00  0.000000e+00  0.000000e+00
   outer loop
     vertex  8.000000e+00 -3.995972e+00  1.794593e-01
     vertex  8.000000e+00 -3.804226e+00  1.236068e+00
     vertex  8.000000e+00 -3.963799e+00  5.369331e-01
   endloop
 endfacet
 facet normal  1.000000e+00  0.000000e+00  0.000000e+00
   outer loop
     vertex  8.000000e+00  4.898587e-16  4.000000e+00
     vertex  8.000000e+00 -3.585572e-01  3.983897e+00
     vertex  8.000000e+00 -7.142276e-01  3.935718e+00
   endloop
 endfacet
 facet normal  1.000000e+00  0.000000e+00  0.000000e+00
   outer loop
     vertex  8.000000e+00  1.064147e+00  3.855851e+00
     vertex  8.000000e+00  4.898587e-16  4.000000e+00
     vertex  8.000000e+00 -7.142276e-01  3.935718e+00
   endloop
 endfacet
 facet normal  1.000000e+00  0.000000e+00  0.000000e+00
   outer loop
     vertex  8.000000e+00  1.064147e+00  3.855851e+00
     vertex  8.000000e+00  7.142276e-01  3.935718e+00
     vertex  8.000000e+00  3.585572e-01  3.983897e+00
   endloop
 endfacet
 facet normal  1.000000e+00  0.000000e+00  0.000000e+00
   outer loop
     vertex  8.000000e+00  1.064147e+00  3.855851e+00
     vertex  8.000000e+00  3.585572e-01  3.983897e+00
     vertex  8.000000e+00  4.898587e-16  4.000000e+00
   endloop
 endfacet
 facet normal  1.000000e+00  0.000000e+00  0.000000e+00
   outer loop
     vertex  8.000000e+00 -3.804226e+00 -1.236068e+00
     vertex  8.000000e+00 -3.995972e+00  1.794593e-01
     vertex  8.000000e+00 -3.995972e+00 -1.794593e-01
   endloop
 endfacet
 facet normal  1.000000e+00  0.000000e+00  0.000000e+00
   outer loop
     vertex  8.000000e+00 -3.804226e+00 -1.236068e+00
     vertex  8.000000e+00 -3.995972e+00 -1.794593e-01
     vertex  8.000000e+00 -3.963799e+00 -5.369331e-01
   endloop
 endfacet
 facet normal  1.000000e+00  0.000000e+00  0.000000e+00
   outer loop
     vertex  8.000000e+00 -3.804226e+00 -1.236068e+00
     vertex  8.000000e+00 -3.963799e+00 -5.369331e-01
     vertex  8.000000e+00 -3.899712e+00 -8.900837e-01
   endloop
 endfacet
 facet normal  1.000000e+00  0.000000e+00  0.000000e+00
   outer loop
     vertex  8.000000e+00 -3.678111e+00 -1.572100e+00
     vertex  8.000000e+00 -3.995972e+00  1.794593e-01
     vertex  8.000000e+00 -3.804226e+00 -1.236068e+00
   endloop
 endfacet
 facet normal  1.000000e+00  0.000000e+00  0.000000e+00
   outer loop
     vertex  8.000000e+00  2.051597e+00  3.433795e+00
     vertex  8.000000e+00  1.735535e+00  3.603875e+00
     vertex  8.000000e+00  1.405499e+00  3.744939e+00
   endloop
 endfacet
 facet normal  1.000000e+00  0.000000e+00  0.000000e+00
   outer loop
     vertex  8.000000e+00 -3.338293e+00 -2.203588e+00
     vertex  8.000000e+00 -3.678111e+00 -1.572100e+00
     vertex  8.000000e+00 -3.522382e+00 -1.895475e+00
   endloop
 endfacet
 facet normal  1.000000e+00  0.000000e+00  0.000000e+00
   outer loop
     vertex  8.000000e+00  2.351141e+00  3.236068e+00
     vertex  8.000000e+00  2.051597e+00  3.433795e+00
     vertex  8.000000e+00  1.405499e+00  3.744939e+00
   endloop
 endfacet
 facet normal  1.000000e+00  0.000000e+00  0.000000e+00
   outer loop
     vertex  8.000000e+00  2.631755e+00  3.012286e+00
     vertex  8.000000e+00  2.351141e+00  3.236068e+00
     vertex  8.000000e+00  1.405499e+00  3.744939e+00
   endloop
 endfacet
 facet normal  1.000000e+00  0.000000e+00  0.000000e+00
   outer loop
     vertex  8.000000e+00  2.891179e+00  2.764251e+00
     vertex  8.000000e+00  1.405499e+00  3.744939e+00
     vertex  8.000000e+00  1.064147e+00  3.855851e+00
   endloop
 endfacet
 facet normal  1.000000e+00  0.000000e+00  0.000000e+00
   outer loop
     vertex  8.000000e+00  2.891179e+00  2.764251e+00
     vertex  8.000000e+00  2.631755e+00  3.012286e+00
     vertex  8.000000e+00  1.405499e+00  3.744939e+00
   endloop
 endfacet
 facet normal  1.000000e+00  0.000000e+00  0.000000e+00
   outer loop
     vertex  8.000000e+00 -2.631755e+00 -3.012286e+00
     vertex  8.000000e+00 -3.995972e+00  1.794593e-01
     vertex  8.000000e+00 -3.678111e+00 -1.572100e+00
   endloop
 endfacet
 facet normal  1.000000e+00  0.000000e+00  0.000000e+00
   outer loop
     vertex  8.000000e+00 -2.631755e+00 -3.012286e+00
     vertex  8.000000e+00 -3.678111e+00 -1.572100e+00
     vertex  8.000000e+00 -3.338293e+00 -2.203588e+00
   endloop
 endfacet
 facet normal  1.000000e+00  0.000000e+00  0.000000e+00
   outer loop
     vertex  8.000000e+00 -2.631755e+00 -3.012286e+00
     vertex  8.000000e+00 -3.338293e+00 -2.203588e+00
     vertex  8.000000e+00 -3.127326e+00 -2.493959e+00
   endloop
 endfacet
 facet normal  1.000000e+00  0.000000e+00  0.000000e+00
   outer loop
     vertex  8.000000e+00 -2.631755e+00 -3.012286e+00
     vertex  8.000000e+00 -3.127326e+00 -2.493959e+00
     vertex  8.000000e+00 -2.891179e+00 -2.764251e+00
   endloop
 endfacet
 facet normal  1.000000e+00  0.000000e+00  0.000000e+00
   outer loop
     vertex  8.000000e+00  3.338293e+00  2.203588e+00
     vertex  8.000000e+00  3.127326e+00  2.493959e+00
     vertex  8.000000e+00  2.891179e+00  2.764251e+00
   endloop
 endfacet
 facet normal  1.000000e+00  0.000000e+00  0.000000e+00
   outer loop
     vertex  8.000000e+00 -1.735535e+00 -3.603875e+00
     vertex  8.000000e+00 -2.351141e+00 -3.236068e+00
     vertex  8.000000e+00 -2.051597e+00 -3.433795e+00
   endloop
 endfacet
 facet normal  1.000000e+00  0.000000e+00  0.000000e+00
   outer loop
     vertex  8.000000e+00 -1.405499e+00 -3.744939e+00
     vertex  8.000000e+00 -3.995972e+00  1.794593e-01
     vertex  8.000000e+00 -2.631755e+00 -3.012286e+00
   endloop
 endfacet
 facet normal  1.000000e+00  0.000000e+00  0.000000e+00
   outer loop
     vertex  8.000000e+00 -1.405499e+00 -3.744939e+00
     vertex  8.000000e+00 -2.351141e+00 -3.236068e+00
     vertex  8.000000e+00 -1.735535e+00 -3.603875e+00
   endloop
 endfacet
 facet normal  1.000000e+00  0.000000e+00  0.000000e+00
   outer loop
     vertex  8.000000e+00 -1.405499e+00 -3.744939e+00
     vertex  8.000000e+00 -2.631755e+00 -3.012286e+00
     vertex  8.000000e+00 -2.351141e+00 -3.236068e+00
   endloop
 endfacet
 facet normal  1.000000e+00  0.000000e+00  0.000000e+00
   outer loop
     vertex  8.000000e+00 -1.405499e+00 -3.744939e+00
     vertex  8.000000e+00 -2.891179e+00  2.764251e+00
     vertex  8.000000e+00 -3.995972e+00  1.794593e-01
   endloop
 endfacet
 facet normal  1.000000e+00  0.000000e+00 -0.000000e+00
   outer loop
     vertex  8.000000e+00 -1.405499e+00 -3.744939e+00
     vertex  8.000000e+00 -7.142276e-01  3.935718e+00
     vertex  8.000000e+00 -2.891179e+00  2.764251e+00
   endloop
 endfacet
 facet normal  1.000000e+00  0.000000e+00  0.000000e+00
   outer loop
     vertex  8.000000e+00  3.899712e+00  8.900837e-01
     vertex  8.000000e+00  3.804226e+00  1.236068e+00
     vertex  8.000000e+00  3.678111e+00  1.572100e+00
   endloop
 endfacet
 facet normal  1.000000e+00  0.000000e+00  0.000000e+00
   outer loop
     vertex  8.000000e+00  3.899712e+00  8.900837e-01
     vertex  8.000000e+00  3.678111e+00  1.572100e+00
     vertex  8.000000e+00  3.522382e+00  1.895475e+00
   endloop
 endfacet
 facet normal  1.000000e+00  0.000000e+00  0.000000e+00
   outer loop
     vertex  8.000000e+00  3.899712e+00  8.900837e-01
     vertex  8.000000e+00  3.522382e+00  1.895475e+00
     vertex  8.000000e+00  3.338293e+00  2.203588e+00
   endloop
 endfacet
 facet normal  1.000000e+00  0.000000e+00  0.000000e+00
   outer loop
     vertex  8.000000e+00 -7.142276e-01 -3.935718e+00
     vertex  8.000000e+00 -1.405499e+00 -3.744939e+00
     vertex  8.000000e+00 -1.064147e+00 -3.855851e+00
   endloop
 endfacet
 facet normal  1.000000e+00  0.000000e+00  0.000000e+00
   outer loop
     vertex  8.000000e+00  3.963799e+00  5.369331e-01
     vertex  8.000000e+00  3.899712e+00  8.900837e-01
     vertex  8.000000e+00  3.338293e+00  2.203588e+00
   endloop
 endfacet
 facet normal  1.000000e+00  0.000000e+00  0.000000e+00
   outer loop
     vertex  8.000000e+00 -3.585572e-01 -3.983897e+00
     vertex  8.000000e+00 -1.405499e+00 -3.744939e+00
     vertex  8.000000e+00 -7.142276e-01 -3.935718e+00
   endloop
 endfacet
 facet normal  1.000000e+00  0.000000e+00  0.000000e+00
   outer loop
     vertex  8.000000e+00  3.963799e+00 -5.369331e-01
     vertex  8.000000e+00  3.995972e+00 -1.794593e-01
     vertex  8.000000e+00  3.995972e+00  1.794593e-01
   endloop
 endfacet
 facet normal  1.000000e+00  0.000000e+00  0.000000e+00
   outer loop
     vertex  8.000000e+00  3.963799e+00 -5.369331e-01
     vertex  8.000000e+00  3.995972e+00  1.794593e-01
     vertex  8.000000e+00  3.963799e+00  5.369331e-01
   endloop
 endfacet
 facet normal  1.000000e+00  0.000000e+00  0.000000e+00
   outer loop
     vertex  8.000000e+00  3.899712e+00 -8.900837e-01
     vertex  8.000000e+00  3.963799e+00 -5.369331e-01
     vertex  8.000000e+00  3.963799e+00  5.369331e-01
   endloop
 endfacet
 facet normal  1.000000e+00  0.000000e+00  0.000000e+00
   outer loop
     vertex  8.000000e+00  3.678111e+00 -1.572100e+00
     vertex  8.000000e+00  3.804226e+00 -1.236068e+00
     vertex  8.000000e+00  3.899712e+00 -8.900837e-01
   endloop
 endfacet
 facet normal  1.000000e+00  0.000000e+00  0.000000e+00
   outer loop
     vertex  8.000000e+00  3.678111e+00 -1.572100e+00
     vertex  8.000000e+00  3.899712e+00 -8.900837e-01
     vertex  8.000000e+00  3.963799e+00  5.369331e-01
   endloop
 endfacet
 facet normal  1.000000e+00  0.000000e+00  0.000000e+00
   outer loop
     vertex  8.000000e+00  1.735535e+00 -3.603875e+00
     vertex  8.000000e+00  7.142276e-01 -3.935718e+00
     vertex  8.000000e+00  1.064147e+00 -3.855851e+00
   endloop
 endfacet
 facet normal  1.000000e+00  0.000000e+00  0.000000e+00
   outer loop
     vertex  8.000000e+00  1.735535e+00 -3.603875e+00
     vertex  8.000000e+00  1.064147e+00 -3.855851e+00
     vertex  8.000000e+00  1.405499e+00 -3.744939e+00
   endloop
 endfacet
 facet normal  1.000000e+00  0.000000e+00  0.000000e+00
   outer loop
     vertex  8.000000e+00  3.338293e+00 -2.203588e+00
     vertex  8.000000e+00  3.522382e+00 -1.895475e+00
     vertex  8.000000e+00  3.678111e+00 -1.572100e+00
   endloop
 endfacet
 facet normal  1.000000e+00  0.000000e+00  0.000000e+00
   outer loop
     vertex  8.000000e+00  3.338293e+00 -2.203588e+00
     vertex  8.000000e+00  3.963799e+00  5.369331e-01
     vertex  8.000000e+00  3.338293e+00  2.203588e+00
   endloop
 endfacet
 facet normal  1.000000e+00  0.000000e+00  0.000000e+00
   outer loop
     vertex  8.000000e+00  3.338293e+00 -2.203588e+00
     vertex  8.000000e+00  3.678111e+00 -1.572100e+00
     vertex  8.000000e+00  3.963799e+00  5.369331e-01
   endloop
 endfacet
 facet normal  1.000000e+00  0.000000e+00  0.000000e+00
   outer loop
     vertex  8.000000e+00  2.351141e+00 -3.236068e+00
     vertex  8.000000e+00 -9.797174e-16 -4.000000e+00
     vertex  8.000000e+00  3.585572e-01 -3.983897e+00
   endloop
 endfacet
 facet normal  1.000000e+00  0.000000e+00  0.000000e+00
   outer loop
     vertex  8.000000e+00  2.351141e+00 -3.236068e+00
     vertex  8.000000e+00  3.585572e-01 -3.983897e+00
     vertex  8.000000e+00  7.142276e-01 -3.935718e+00
   endloop
 endfacet
 facet normal  1.000000e+00  0.000000e+00  0.000000e+00
   outer loop
     vertex  8.000000e+00  2.351141e+00 -3.236068e+00
     vertex  8.000000e+00  1.735535e+00 -3.603875e+00
     vertex  8.000000e+00  2.051597e+00 -3.433795e+00
   endloop
 endfacet
 facet normal  1.000000e+00  0.000000e+00  0.000000e+00
   outer loop
     vertex  8.000000e+00  2.351141e+00 -3.236068e+00
     vertex  8.000000e+00  7.142276e-01 -3.935718e+00
     vertex  8.000000e+00  1.735535e+00 -3.603875e+00
   endloop
 endfacet
 facet normal  1.000000e+00  0.000000e+00  0.000000e+00
   outer loop
     vertex  8.000000e+00  2.631755e+00 -3.012286e+00
     vertex  8.000000e+00  1.064147e+00  3.855851e+00
     vertex  8.000000e+00 -7.142276e-01  3.935718e+00
   endloop
 endfacet
 facet normal  1.000000e+00  0.000000e+00  0.000000e+00
   outer loop
     vertex  8.000000e+00  2.631755e+00 -3.012286e+00
     vertex  8.000000e+00 -9.797174e-16 -4.000000e+00
     vertex  8.000000e+00  2.351141e+00 -3.236068e+00
   endloop
 endfacet
 facet normal  1.000000e+00  0.000000e+00 -0.000000e+00
   outer loop
     vertex  8.000000e+00  2.631755e+00 -3.012286e+00
     vertex  8.000000e+00  2.891179e+00  2.764251e+00
     vertex  8.000000e+00  1.064147e+00  3.855851e+00
   endloop
 endfacet
 facet normal  1.000000e+00  0.000000e+00  0.000000e+00
   outer loop
     vertex  8.000000e+00  2.631755e+00 -3.012286e+00
     vertex  8.000000e+00 -1.405499e+00 -3.744939e+00
     vertex  8.000000e+00 -3.585572e-01 -3.983897e+00
   endloop
 endfacet
 facet normal  1.000000e+00  0.000000e+00  0.000000e+00
   outer loop
     vertex  8.000000e+00  2.631755e+00 -3.012286e+00
     vertex  8.000000e+00 -7.142276e-01  3.935718e+00
     vertex  8.000000e+00 -1.405499e+00 -3.744939e+00
   endloop
 endfacet
 facet normal  1.000000e+00  0.000000e+00  0.000000e+00
   outer loop
     vertex  8.000000e+00  2.631755e+00 -3.012286e+00
     vertex  8.000000e+00 -3.585572e-01 -3.983897e+00
     vertex  8.000000e+00 -9.797174e-16 -4.000000e+00
   endloop
 endfacet
 facet normal  1.000000e+00  0.000000e+00  0.000000e+00
   outer loop
     vertex  8.000000e+00  2.891179e+00 -2.764251e+00
     vertex  8.000000e+00  3.127326e+00 -2.493959e+00
     vertex  8.000000e+00  3.338293e+00 -2.203588e+00
   endloop
 endfacet
 facet normal  1.000000e+00  0.000000e+00  0.000000e+00
   outer loop
     vertex  8.000000e+00  2.891179e+00 -2.764251e+00
     vertex  8.000000e+00  3.338293e+00  2.203588e+00
     vertex  8.000000e+00  2.891179e+00  2.764251e+00
   endloop
 endfacet
 facet normal  1.000000e+00  0.000000e+00 -0.000000e+00
   outer loop
     vertex  8.000000e+00  2.891179e+00 -2.764251e+00
     vertex  8.000000e+00  2.891179e+00  2.764251e+00
     vertex  8.000000e+00  2.631755e+00 -3.012286e+00
   endloop
 endfacet
 facet normal  1.000000e+00  0.000000e+00  0.000000e+00
   outer loop
     vertex  8.000000e+00  2.891179e+00 -2.764251e+00
     vertex  8.000000e+00  3.338293e+00 -2.203588e+00
     vertex  8.000000e+00  3.338293e+00  2.203588e+00
   endloop
 endfacet
endsolid
