solid 
 facet normal  1.182077e-16  6.037850e-02 -9.981756e-01
   outer loop
     vertex  8.000000e+00 -9.797174e-16 -4.000000e+00
     vertex -7.000000e+00 -9.797174e-16 -4.000000e+00
     vertex -7.000000e+00  4.821467e-01 -3.970835e+00
   endloop
 endfacet
 facet normal  1.182077e-16  6.037850e-02 -9.981756e-01
   outer loop
     vertex  8.000000e+00  4.821467e-01 -3.970835e+00
     vertex  8.000000e+00 -9.797174e-16 -4.000000e+00
     vertex -7.000000e+00  4.821467e-01 -3.970835e+00
   endloop
 endfacet
 facet normal  1.164840e-16  1.802550e-01 -9.836199e-01
   outer loop
     vertex  8.000000e+00  4.821467e-01 -3.970835e+00
     vertex -7.000000e+00  4.821467e-01 -3.970835e+00
     vertex -7.000000e+00  9.572627e-01 -3.883767e+00
   endloop
 endfacet
 facet normal  1.164840e-16  1.802550e-01 -9.836199e-01
   outer loop
     vertex  8.000000e+00  9.572627e-01 -3.883767e+00
     vertex  8.000000e+00  4.821467e-01 -3.970835e+00
     vertex -7.000000e+00  9.572627e-01 -3.883767e+00
   endloop
 endfacet
 facet normal  1.130079e-16  2.975031e-01 -9.547209e-01
   outer loop
     vertex  8.000000e+00  1.418420e+00 -3.740065e+00
     vertex  8.000000e+00  9.572627e-01 -3.883767e+00
     vertex -7.000000e+00  9.572627e-01 -3.883767e+00
   endloop
 endfacet
 facet normal  1.130617e-16  2.975031e-01 -9.547209e-01
   outer loop
     vertex  8.000000e+00  1.418420e+00 -3.740065e+00
     vertex -7.000000e+00  9.572627e-01 -3.883767e+00
     vertex -7.000000e+00  1.418420e+00 -3.740065e+00
   endloop
 endfacet
 facet normal  1.079906e-16  4.104128e-01 -9.118998e-01
   outer loop
     vertex  8.000000e+00  1.418420e+00 -3.740065e+00
     vertex -7.000000e+00  1.418420e+00 -3.740065e+00
     vertex -7.000000e+00  1.858893e+00 -3.541824e+00
   endloop
 endfacet
 facet normal  1.079906e-16  4.104128e-01 -9.118998e-01
   outer loop
     vertex  8.000000e+00  1.858893e+00 -3.541824e+00
     vertex  8.000000e+00  1.418420e+00 -3.740065e+00
     vertex -7.000000e+00  1.858893e+00 -3.541824e+00
   endloop
 endfacet
 facet normal  9.960016e-17  5.173378e-01 -8.557813e-01
   outer loop
     vertex  8.000000e+00  2.272259e+00 -3.291935e+00
     vertex  8.000000e+00  1.858893e+00 -3.541824e+00
     vertex -7.000000e+00  1.858893e+00 -3.541824e+00
   endloop
 endfacet
 facet normal  1.013449e-16  5.173378e-01 -8.557813e-01
   outer loop
     vertex  8.000000e+00  2.272259e+00 -3.291935e+00
     vertex -7.000000e+00  1.858893e+00 -3.541824e+00
     vertex -7.000000e+00  2.272259e+00 -3.291935e+00
   endloop
 endfacet
 facet normal  9.193861e-17  6.167189e-01 -7.871835e-01
   outer loop
     vertex  8.000000e+00  2.652491e+00 -2.994043e+00
     vertex  8.000000e+00  2.272259e+00 -3.291935e+00
     vertex -7.000000e+00  2.272259e+00 -3.291935e+00
   endloop
 endfacet
 facet normal  9.322125e-17  6.167189e-01 -7.871835e-01
   outer loop
     vertex  8.000000e+00  2.652491e+00 -2.994043e+00
     vertex -7.000000e+00  2.272259e+00 -3.291935e+00
     vertex -7.000000e+00  2.652491e+00 -2.994043e+00
   endloop
 endfacet
 facet normal  8.427706e-17  7.071068e-01 -7.071068e-01
   outer loop
     vertex  8.000000e+00  2.994043e+00 -2.652491e+00
     vertex  8.000000e+00  2.652491e+00 -2.994043e+00
     vertex -7.000000e+00  2.652491e+00 -2.994043e+00
   endloop
 endfacet
 facet normal  8.373826e-17  7.071068e-01 -7.071068e-01
   outer loop
     vertex  8.000000e+00  2.994043e+00 -2.652491e+00
     vertex -7.000000e+00  2.652491e+00 -2.994043e+00
     vertex -7.000000e+00  2.994043e+00 -2.652491e+00
   endloop
 endfacet
 facet normal  7.303419e-17  7.871835e-01 -6.167189e-01
   outer loop
     vertex  8.000000e+00  2.994043e+00 -2.652491e+00
     vertex -7.000000e+00  2.994043e+00 -2.652491e+00
     vertex -7.000000e+00  3.291935e+00 -2.272259e+00
   endloop
 endfacet
 facet normal  7.303419e-17  7.871835e-01 -6.167189e-01
   outer loop
     vertex  8.000000e+00  3.291935e+00 -2.272259e+00
     vertex  8.000000e+00  2.994043e+00 -2.652491e+00
     vertex -7.000000e+00  3.291935e+00 -2.272259e+00
   endloop
 endfacet
 facet normal  6.129241e-17  8.557813e-01 -5.173378e-01
   outer loop
     vertex  8.000000e+00  3.541824e+00 -1.858893e+00
     vertex  8.000000e+00  3.291935e+00 -2.272259e+00
     vertex -7.000000e+00  3.291935e+00 -2.272259e+00
   endloop
 endfacet
 facet normal  6.126510e-17  8.557813e-01 -5.173378e-01
   outer loop
     vertex  8.000000e+00  3.541824e+00 -1.858893e+00
     vertex -7.000000e+00  3.291935e+00 -2.272259e+00
     vertex -7.000000e+00  3.541824e+00 -1.858893e+00
   endloop
 endfacet
 facet normal  4.788469e-17  9.118998e-01 -4.104128e-01
   outer loop
     vertex  8.000000e+00  3.740065e+00 -1.418420e+00
     vertex  8.000000e+00  3.541824e+00 -1.858893e+00
     vertex -7.000000e+00  3.541824e+00 -1.858893e+00
   endloop
 endfacet
 facet normal  4.860264e-17  9.118998e-01 -4.104128e-01
   outer loop
     vertex  8.000000e+00  3.740065e+00 -1.418420e+00
     vertex -7.000000e+00  3.541824e+00 -1.858893e+00
     vertex -7.000000e+00  3.740065e+00 -1.418420e+00
   endloop
 endfacet
 facet normal  3.523144e-17  9.547209e-01 -2.975031e-01
   outer loop
     vertex  8.000000e+00  3.740065e+00 -1.418420e+00
     vertex -7.000000e+00  3.740065e+00 -1.418420e+00
     vertex -7.000000e+00  3.883767e+00 -9.572627e-01
   endloop
 endfacet
 facet normal  3.302947e-17  9.547209e-01 -2.975031e-01
   outer loop
     vertex  8.000000e+00  3.883767e+00 -9.572627e-01
     vertex  8.000000e+00  3.740065e+00 -1.418420e+00
     vertex -7.000000e+00  3.883767e+00 -9.572627e-01
   endloop
 endfacet
 facet normal  2.011157e-17  9.836199e-01 -1.802550e-01
   outer loop
     vertex  8.000000e+00  3.970835e+00 -4.821467e-01
     vertex  8.000000e+00  3.883767e+00 -9.572627e-01
     vertex -7.000000e+00  3.883767e+00 -9.572627e-01
   endloop
 endfacet
 facet normal  2.001233e-17  9.836199e-01 -1.802550e-01
   outer loop
     vertex  8.000000e+00  3.970835e+00 -4.821467e-01
     vertex -7.000000e+00  3.883767e+00 -9.572627e-01
     vertex -7.000000e+00  3.970835e+00 -4.821467e-01
   endloop
 endfacet
 facet normal  6.703857e-18  9.981756e-01 -6.037850e-02
   outer loop
     vertex  8.000000e+00  4.000000e+00 -3.559517e-16
     vertex  8.000000e+00  3.970835e+00 -4.821467e-01
     vertex -7.000000e+00  3.970835e+00 -4.821467e-01
   endloop
 endfacet
 facet normal  6.703360e-18  9.981756e-01 -6.037850e-02
   outer loop
     vertex  8.000000e+00  4.000000e+00 -3.559517e-16
     vertex -7.000000e+00  3.970835e+00 -4.821467e-01
     vertex -7.000000e+00  4.000000e+00 -2.021286e-15
   endloop
 endfacet
 facet normal -6.703360e-18  9.981756e-01  6.037850e-02
   outer loop
     vertex  8.000000e+00  3.970835e+00  4.821467e-01
     vertex -7.000000e+00  4.000000e+00 -2.021286e-15
     vertex -7.000000e+00  3.970835e+00  4.821467e-01
   endloop
 endfacet
 facet normal -6.703857e-18  9.981756e-01  6.037850e-02
   outer loop
     vertex  8.000000e+00  3.970835e+00  4.821467e-01
     vertex  8.000000e+00  4.000000e+00 -3.559517e-16
     vertex -7.000000e+00  4.000000e+00 -2.021286e-15
   endloop
 endfacet
 facet normal -2.001233e-17  9.836199e-01  1.802550e-01
   outer loop
     vertex  8.000000e+00  3.970835e+00  4.821467e-01
     vertex -7.000000e+00  3.970835e+00  4.821467e-01
     vertex -7.000000e+00  3.883767e+00  9.572627e-01
   endloop
 endfacet
 facet normal -3.302947e-17  9.547209e-01  2.975031e-01
   outer loop
     vertex  8.000000e+00  3.883767e+00  9.572627e-01
     vertex -7.000000e+00  3.883767e+00  9.572627e-01
     vertex -7.000000e+00  3.740065e+00  1.418420e+00
   endloop
 endfacet
 facet normal -2.001233e-17  9.836199e-01  1.802550e-01
   outer loop
     vertex  8.000000e+00  3.883767e+00  9.572627e-01
     vertex  8.000000e+00  3.970835e+00  4.821467e-01
     vertex -7.000000e+00  3.883767e+00  9.572627e-01
   endloop
 endfacet
 facet normal -3.523144e-17  9.547209e-01  2.975031e-01
   outer loop
     vertex  8.000000e+00  3.740065e+00  1.418420e+00
     vertex  8.000000e+00  3.883767e+00  9.572627e-01
     vertex -7.000000e+00  3.740065e+00  1.418420e+00
   endloop
 endfacet
 facet normal -4.860264e-17  9.118998e-01  4.104128e-01
   outer loop
     vertex  8.000000e+00  3.541824e+00  1.858893e+00
     vertex -7.000000e+00  3.740065e+00  1.418420e+00
     vertex -7.000000e+00  3.541824e+00  1.858893e+00
   endloop
 endfacet
 facet normal -6.126510e-17  8.557813e-01  5.173378e-01
   outer loop
     vertex  8.000000e+00  3.541824e+00  1.858893e+00
     vertex -7.000000e+00  3.541824e+00  1.858893e+00
     vertex -7.000000e+00  3.291935e+00  2.272259e+00
   endloop
 endfacet
 facet normal -4.788469e-17  9.118998e-01  4.104128e-01
   outer loop
     vertex  8.000000e+00  3.541824e+00  1.858893e+00
     vertex  8.000000e+00  3.740065e+00  1.418420e+00
     vertex -7.000000e+00  3.740065e+00  1.418420e+00
   endloop
 endfacet
 facet normal -6.126510e-17  8.557813e-01  5.173378e-01
   outer loop
     vertex  8.000000e+00  3.291935e+00  2.272259e+00
     vertex  8.000000e+00  3.541824e+00  1.858893e+00
     vertex -7.000000e+00  3.291935e+00  2.272259e+00
   endloop
 endfacet
 facet normal -7.303419e-17  7.871835e-01  6.167189e-01
   outer loop
     vertex  8.000000e+00  2.994043e+00  2.652491e+00
     vertex -7.000000e+00  3.291935e+00  2.272259e+00
     vertex -7.000000e+00  2.994043e+00  2.652491e+00
   endloop
 endfacet
 facet normal -8.373826e-17  7.071068e-01  7.071068e-01
   outer loop
     vertex  8.000000e+00  2.994043e+00  2.652491e+00
     vertex -7.000000e+00  2.994043e+00  2.652491e+00
     vertex -7.000000e+00  2.652491e+00  2.994043e+00
   endloop
 endfacet
 facet normal -7.470012e-17  7.871835e-01  6.167189e-01
   outer loop
     vertex  8.000000e+00  2.994043e+00  2.652491e+00
     vertex  8.000000e+00  3.291935e+00  2.272259e+00
     vertex -7.000000e+00  3.291935e+00  2.272259e+00
   endloop
 endfacet
 facet normal -8.373826e-17  7.071068e-01  7.071068e-01
   outer loop
     vertex  8.000000e+00  2.652491e+00  2.994043e+00
     vertex  8.000000e+00  2.994043e+00  2.652491e+00
     vertex -7.000000e+00  2.652491e+00  2.994043e+00
   endloop
 endfacet
 facet normal -9.322125e-17  6.167189e-01  7.871835e-01
   outer loop
     vertex  8.000000e+00  2.272259e+00  3.291935e+00
     vertex -7.000000e+00  2.652491e+00  2.994043e+00
     vertex -7.000000e+00  2.272259e+00  3.291935e+00
   endloop
 endfacet
 facet normal -9.385400e-17  6.167189e-01  7.871835e-01
   outer loop
     vertex  8.000000e+00  2.272259e+00  3.291935e+00
     vertex  8.000000e+00  2.652491e+00  2.994043e+00
     vertex -7.000000e+00  2.652491e+00  2.994043e+00
   endloop
 endfacet
 facet normal -1.013449e-16  5.173378e-01  8.557813e-01
   outer loop
     vertex  8.000000e+00  1.858893e+00  3.541824e+00
     vertex -7.000000e+00  2.272259e+00  3.291935e+00
     vertex -7.000000e+00  1.858893e+00  3.541824e+00
   endloop
 endfacet
 facet normal -1.015155e-16  5.173378e-01  8.557813e-01
   outer loop
     vertex  8.000000e+00  1.858893e+00  3.541824e+00
     vertex  8.000000e+00  2.272259e+00  3.291935e+00
     vertex -7.000000e+00  2.272259e+00  3.291935e+00
   endloop
 endfacet
 facet normal -1.079906e-16  4.104128e-01  9.118998e-01
   outer loop
     vertex  8.000000e+00  1.418420e+00  3.740065e+00
     vertex -7.000000e+00  1.858893e+00  3.541824e+00
     vertex -7.000000e+00  1.418420e+00  3.740065e+00
   endloop
 endfacet
 facet normal -1.091771e-16  4.104128e-01  9.118998e-01
   outer loop
     vertex  8.000000e+00  1.418420e+00  3.740065e+00
     vertex  8.000000e+00  1.858893e+00  3.541824e+00
     vertex -7.000000e+00  1.858893e+00  3.541824e+00
   endloop
 endfacet
 facet normal -1.130079e-16  2.975031e-01  9.547209e-01
   outer loop
     vertex  8.000000e+00  9.572627e-01  3.883767e+00
     vertex  8.000000e+00  1.418420e+00  3.740065e+00
     vertex -7.000000e+00  1.418420e+00  3.740065e+00
   endloop
 endfacet
 facet normal -1.130617e-16  2.975031e-01  9.547209e-01
   outer loop
     vertex  8.000000e+00  9.572627e-01  3.883767e+00
     vertex -7.000000e+00  1.418420e+00  3.740065e+00
     vertex -7.000000e+00  9.572627e-01  3.883767e+00
   endloop
 endfacet
 facet normal -1.158810e-16  1.802550e-01  9.836199e-01
   outer loop
     vertex  8.000000e+00  4.821467e-01  3.970835e+00
     vertex  8.000000e+00  9.572627e-01  3.883767e+00
     vertex -7.000000e+00  9.572627e-01  3.883767e+00
   endloop
 endfacet
 facet normal -1.164840e-16  1.802550e-01  9.836199e-01
   outer loop
     vertex  8.000000e+00  4.821467e-01  3.970835e+00
     vertex -7.000000e+00  9.572627e-01  3.883767e+00
     vertex -7.000000e+00  4.821467e-01  3.970835e+00
   endloop
 endfacet
 facet normal -1.180358e-16  6.037850e-02  9.981756e-01
   outer loop
     vertex  8.000000e+00  7.595286e-15  4.000000e+00
     vertex  8.000000e+00  4.821467e-01  3.970835e+00
     vertex -7.000000e+00  4.821467e-01  3.970835e+00
   endloop
 endfacet
 facet normal -1.182077e-16  6.037850e-02  9.981756e-01
   outer loop
     vertex  8.000000e+00  7.595286e-15  4.000000e+00
     vertex -7.000000e+00  4.821467e-01  3.970835e+00
     vertex -7.000000e+00  7.595286e-15  4.000000e+00
   endloop
 endfacet
 facet normal -1.182752e-16 -6.037850e-02  9.981756e-01
   outer loop
     vertex  8.000000e+00 -4.821467e-01  3.970835e+00
     vertex  8.000000e+00  7.595286e-15  4.000000e+00
     vertex -7.000000e+00  7.595286e-15  4.000000e+00
   endloop
 endfacet
 facet normal -1.182077e-16 -6.037850e-02  9.981756e-01
   outer loop
     vertex  8.000000e+00 -4.821467e-01  3.970835e+00
     vertex -7.000000e+00  7.595286e-15  4.000000e+00
     vertex -7.000000e+00 -4.821467e-01  3.970835e+00
   endloop
 endfacet
 facet normal -1.168387e-16 -1.802550e-01  9.836199e-01
   outer loop
     vertex  8.000000e+00 -9.572627e-01  3.883767e+00
     vertex  8.000000e+00 -4.821467e-01  3.970835e+00
     vertex -7.000000e+00 -4.821467e-01  3.970835e+00
   endloop
 endfacet
 facet normal -1.164840e-16 -1.802550e-01  9.836199e-01
   outer loop
     vertex  8.000000e+00 -9.572627e-01  3.883767e+00
     vertex -7.000000e+00 -4.821467e-01  3.970835e+00
     vertex -7.000000e+00 -9.572627e-01  3.883767e+00
   endloop
 endfacet
 facet normal -1.130079e-16 -2.975031e-01  9.547209e-01
   outer loop
     vertex  8.000000e+00 -1.418420e+00  3.740065e+00
     vertex  8.000000e+00 -9.572627e-01  3.883767e+00
     vertex -7.000000e+00 -9.572627e-01  3.883767e+00
   endloop
 endfacet
 facet normal -1.130617e-16 -2.975031e-01  9.547209e-01
   outer loop
     vertex  8.000000e+00 -1.418420e+00  3.740065e+00
     vertex -7.000000e+00 -9.572627e-01  3.883767e+00
     vertex -7.000000e+00 -1.418420e+00  3.740065e+00
   endloop
 endfacet
 facet normal -1.091771e-16 -4.104128e-01  9.118998e-01
   outer loop
     vertex  8.000000e+00 -1.858893e+00  3.541824e+00
     vertex  8.000000e+00 -1.418420e+00  3.740065e+00
     vertex -7.000000e+00 -1.418420e+00  3.740065e+00
   endloop
 endfacet
 facet normal -1.079906e-16 -4.104128e-01  9.118998e-01
   outer loop
     vertex  8.000000e+00 -1.858893e+00  3.541824e+00
     vertex -7.000000e+00 -1.418420e+00  3.740065e+00
     vertex -7.000000e+00 -1.858893e+00  3.541824e+00
   endloop
 endfacet
 facet normal -1.015155e-16 -5.173378e-01  8.557813e-01
   outer loop
     vertex  8.000000e+00 -2.272259e+00  3.291935e+00
     vertex  8.000000e+00 -1.858893e+00  3.541824e+00
     vertex -7.000000e+00 -1.858893e+00  3.541824e+00
   endloop
 endfacet
 facet normal -1.013449e-16 -5.173378e-01  8.557813e-01
   outer loop
     vertex  8.000000e+00 -2.272259e+00  3.291935e+00
     vertex -7.000000e+00 -1.858893e+00  3.541824e+00
     vertex -7.000000e+00 -2.272259e+00  3.291935e+00
   endloop
 endfacet
 facet normal -9.385400e-17 -6.167189e-01  7.871835e-01
   outer loop
     vertex  8.000000e+00 -2.652491e+00  2.994043e+00
     vertex  8.000000e+00 -2.272259e+00  3.291935e+00
     vertex -7.000000e+00 -2.272259e+00  3.291935e+00
   endloop
 endfacet
 facet normal -9.322125e-17 -6.167189e-01  7.871835e-01
   outer loop
     vertex  8.000000e+00 -2.652491e+00  2.994043e+00
     vertex -7.000000e+00 -2.272259e+00  3.291935e+00
     vertex -7.000000e+00 -2.652491e+00  2.994043e+00
   endloop
 endfacet
 facet normal -8.236167e-17 -7.071068e-01  7.071068e-01
   outer loop
     vertex  8.000000e+00 -2.994043e+00  2.652491e+00
     vertex  8.000000e+00 -2.652491e+00  2.994043e+00
     vertex -7.000000e+00 -2.652491e+00  2.994043e+00
   endloop
 endfacet
 facet normal -8.373826e-17 -7.071068e-01  7.071068e-01
   outer loop
     vertex  8.000000e+00 -2.994043e+00  2.652491e+00
     vertex -7.000000e+00 -2.652491e+00  2.994043e+00
     vertex -7.000000e+00 -2.994043e+00  2.652491e+00
   endloop
 endfacet
 facet normal -7.303419e-17 -7.871835e-01  6.167189e-01
   outer loop
     vertex  8.000000e+00 -2.994043e+00  2.652491e+00
     vertex -7.000000e+00 -2.994043e+00  2.652491e+00
     vertex -7.000000e+00 -3.291935e+00  2.272259e+00
   endloop
 endfacet
 facet normal -7.303419e-17 -7.871835e-01  6.167189e-01
   outer loop
     vertex  8.000000e+00 -3.291935e+00  2.272259e+00
     vertex  8.000000e+00 -2.994043e+00  2.652491e+00
     vertex -7.000000e+00 -3.291935e+00  2.272259e+00
   endloop
 endfacet
 facet normal -6.129241e-17 -8.557813e-01  5.173378e-01
   outer loop
     vertex  8.000000e+00 -3.541824e+00  1.858893e+00
     vertex  8.000000e+00 -3.291935e+00  2.272259e+00
     vertex -7.000000e+00 -3.291935e+00  2.272259e+00
   endloop
 endfacet
 facet normal -6.126510e-17 -8.557813e-01  5.173378e-01
   outer loop
     vertex  8.000000e+00 -3.541824e+00  1.858893e+00
     vertex -7.000000e+00 -3.291935e+00  2.272259e+00
     vertex -7.000000e+00 -3.541824e+00  1.858893e+00
   endloop
 endfacet
 facet normal -4.980008e-17 -9.118998e-01  4.104128e-01
   outer loop
     vertex  8.000000e+00 -3.740065e+00  1.418420e+00
     vertex  8.000000e+00 -3.541824e+00  1.858893e+00
     vertex -7.000000e+00 -3.541824e+00  1.858893e+00
   endloop
 endfacet
 facet normal -4.860264e-17 -9.118998e-01  4.104128e-01
   outer loop
     vertex  8.000000e+00 -3.740065e+00  1.418420e+00
     vertex -7.000000e+00 -3.541824e+00  1.858893e+00
     vertex -7.000000e+00 -3.740065e+00  1.418420e+00
   endloop
 endfacet
 facet normal -3.639237e-17 -9.547209e-01  2.975031e-01
   outer loop
     vertex  8.000000e+00 -3.883767e+00  9.572627e-01
     vertex  8.000000e+00 -3.740065e+00  1.418420e+00
     vertex -7.000000e+00 -3.740065e+00  1.418420e+00
   endloop
 endfacet
 facet normal -3.302947e-17 -9.547209e-01  2.975031e-01
   outer loop
     vertex  8.000000e+00 -3.883767e+00  9.572627e-01
     vertex -7.000000e+00 -3.740065e+00  1.418420e+00
     vertex -7.000000e+00 -3.883767e+00  9.572627e-01
   endloop
 endfacet
 facet normal -2.011157e-17 -9.836199e-01  1.802550e-01
   outer loop
     vertex  8.000000e+00 -3.970835e+00  4.821467e-01
     vertex  8.000000e+00 -3.883767e+00  9.572627e-01
     vertex -7.000000e+00 -3.883767e+00  9.572627e-01
   endloop
 endfacet
 facet normal -2.001233e-17 -9.836199e-01  1.802550e-01
   outer loop
     vertex  8.000000e+00 -3.970835e+00  4.821467e-01
     vertex -7.000000e+00 -3.883767e+00  9.572627e-01
     vertex -7.000000e+00 -3.970835e+00  4.821467e-01
   endloop
 endfacet
 facet normal -6.703360e-18 -9.981756e-01  6.037850e-02
   outer loop
     vertex  8.000000e+00 -3.970835e+00  4.821467e-01
     vertex -7.000000e+00 -3.970835e+00  4.821467e-01
     vertex -7.000000e+00 -4.000000e+00  4.287502e-15
   endloop
 endfacet
 facet normal -6.703360e-18 -9.981756e-01  6.037850e-02
   outer loop
     vertex  8.000000e+00 -4.000000e+00  5.952836e-15
     vertex  8.000000e+00 -3.970835e+00  4.821467e-01
     vertex -7.000000e+00 -4.000000e+00  4.287502e-15
   endloop
 endfacet
 facet normal  6.703857e-18 -9.981756e-01 -6.037850e-02
   outer loop
     vertex  8.000000e+00 -3.970835e+00 -4.821467e-01
     vertex  8.000000e+00 -4.000000e+00  5.952836e-15
     vertex -7.000000e+00 -4.000000e+00  4.287502e-15
   endloop
 endfacet
 facet normal  6.703360e-18 -9.981756e-01 -6.037850e-02
   outer loop
     vertex  8.000000e+00 -3.970835e+00 -4.821467e-01
     vertex -7.000000e+00 -4.000000e+00  4.287502e-15
     vertex -7.000000e+00 -3.970835e+00 -4.821467e-01
   endloop
 endfacet
 facet normal  1.915388e-17 -9.836199e-01 -1.802550e-01
   outer loop
     vertex  8.000000e+00 -3.883767e+00 -9.572627e-01
     vertex  8.000000e+00 -3.970835e+00 -4.821467e-01
     vertex -7.000000e+00 -3.970835e+00 -4.821467e-01
   endloop
 endfacet
 facet normal  2.001233e-17 -9.836199e-01 -1.802550e-01
   outer loop
     vertex  8.000000e+00 -3.883767e+00 -9.572627e-01
     vertex -7.000000e+00 -3.970835e+00 -4.821467e-01
     vertex -7.000000e+00 -3.883767e+00 -9.572627e-01
   endloop
 endfacet
 facet normal  3.256159e-17 -9.547209e-01 -2.975031e-01
   outer loop
     vertex  8.000000e+00 -3.740065e+00 -1.418420e+00
     vertex  8.000000e+00 -3.883767e+00 -9.572627e-01
     vertex -7.000000e+00 -3.883767e+00 -9.572627e-01
   endloop
 endfacet
 facet normal  3.523144e-17 -9.547209e-01 -2.975031e-01
   outer loop
     vertex  8.000000e+00 -3.740065e+00 -1.418420e+00
     vertex -7.000000e+00 -3.883767e+00 -9.572627e-01
     vertex -7.000000e+00 -3.740065e+00 -1.418420e+00
   endloop
 endfacet
 facet normal  4.980008e-17 -9.118998e-01 -4.104128e-01
   outer loop
     vertex  8.000000e+00 -3.541824e+00 -1.858893e+00
     vertex  8.000000e+00 -3.740065e+00 -1.418420e+00
     vertex -7.000000e+00 -3.740065e+00 -1.418420e+00
   endloop
 endfacet
 facet normal  4.860264e-17 -9.118998e-01 -4.104128e-01
   outer loop
     vertex  8.000000e+00 -3.541824e+00 -1.858893e+00
     vertex -7.000000e+00 -3.740065e+00 -1.418420e+00
     vertex -7.000000e+00 -3.541824e+00 -1.858893e+00
   endloop
 endfacet
 facet normal  6.129241e-17 -8.557813e-01 -5.173378e-01
   outer loop
     vertex  8.000000e+00 -3.291935e+00 -2.272259e+00
     vertex  8.000000e+00 -3.541824e+00 -1.858893e+00
     vertex -7.000000e+00 -3.541824e+00 -1.858893e+00
   endloop
 endfacet
 facet normal  6.126510e-17 -8.557813e-01 -5.173378e-01
   outer loop
     vertex  8.000000e+00 -3.291935e+00 -2.272259e+00
     vertex -7.000000e+00 -3.541824e+00 -1.858893e+00
     vertex -7.000000e+00 -3.291935e+00 -2.272259e+00
   endloop
 endfacet
 facet normal  7.278473e-17 -7.871835e-01 -6.167189e-01
   outer loop
     vertex  8.000000e+00 -2.994043e+00 -2.652491e+00
     vertex  8.000000e+00 -3.291935e+00 -2.272259e+00
     vertex -7.000000e+00 -3.291935e+00 -2.272259e+00
   endloop
 endfacet
 facet normal  7.303419e-17 -7.871835e-01 -6.167189e-01
   outer loop
     vertex  8.000000e+00 -2.994043e+00 -2.652491e+00
     vertex -7.000000e+00 -3.291935e+00 -2.272259e+00
     vertex -7.000000e+00 -2.994043e+00 -2.652491e+00
   endloop
 endfacet
 facet normal  8.427706e-17 -7.071068e-01 -7.071068e-01
   outer loop
     vertex  8.000000e+00 -2.652491e+00 -2.994043e+00
     vertex  8.000000e+00 -2.994043e+00 -2.652491e+00
     vertex -7.000000e+00 -2.994043e+00 -2.652491e+00
   endloop
 endfacet
 facet normal  8.373826e-17 -7.071068e-01 -7.071068e-01
   outer loop
     vertex  8.000000e+00 -2.652491e+00 -2.994043e+00
     vertex -7.000000e+00 -2.994043e+00 -2.652491e+00
     vertex -7.000000e+00 -2.652491e+00 -2.994043e+00
   endloop
 endfacet
 facet normal  1.013449e-16 -5.173378e-01 -8.557813e-01
   outer loop
     vertex  8.000000e+00 -2.272259e+00 -3.291935e+00
     vertex -7.000000e+00 -2.272259e+00 -3.291935e+00
     vertex -7.000000e+00 -1.858893e+00 -3.541824e+00
   endloop
 endfacet
 facet normal  9.193861e-17 -6.167189e-01 -7.871835e-01
   outer loop
     vertex  8.000000e+00 -2.272259e+00 -3.291935e+00
     vertex  8.000000e+00 -2.652491e+00 -2.994043e+00
     vertex -7.000000e+00 -2.652491e+00 -2.994043e+00
   endloop
 endfacet
 facet normal  9.322125e-17 -6.167189e-01 -7.871835e-01
   outer loop
     vertex  8.000000e+00 -2.272259e+00 -3.291935e+00
     vertex -7.000000e+00 -2.652491e+00 -2.994043e+00
     vertex -7.000000e+00 -2.272259e+00 -3.291935e+00
   endloop
 endfacet
 facet normal  1.013449e-16 -5.173378e-01 -8.557813e-01
   outer loop
     vertex  8.000000e+00 -1.858893e+00 -3.541824e+00
     vertex  8.000000e+00 -2.272259e+00 -3.291935e+00
     vertex -7.000000e+00 -1.858893e+00 -3.541824e+00
   endloop
 endfacet
 facet normal  1.079906e-16 -4.104128e-01 -9.118998e-01
   outer loop
     vertex  8.000000e+00 -1.418420e+00 -3.740065e+00
     vertex -7.000000e+00 -1.858893e+00 -3.541824e+00
     vertex -7.000000e+00 -1.418420e+00 -3.740065e+00
   endloop
 endfacet
 facet normal  1.130617e-16 -2.975031e-01 -9.547209e-01
   outer loop
     vertex  8.000000e+00 -1.418420e+00 -3.740065e+00
     vertex -7.000000e+00 -1.418420e+00 -3.740065e+00
     vertex -7.000000e+00 -9.572627e-01 -3.883767e+00
   endloop
 endfacet
 facet normal  1.072617e-16 -4.104128e-01 -9.118998e-01
   outer loop
     vertex  8.000000e+00 -1.418420e+00 -3.740065e+00
     vertex  8.000000e+00 -1.858893e+00 -3.541824e+00
     vertex -7.000000e+00 -1.858893e+00 -3.541824e+00
   endloop
 endfacet
 facet normal  1.130617e-16 -2.975031e-01 -9.547209e-01
   outer loop
     vertex  8.000000e+00 -9.572627e-01 -3.883767e+00
     vertex  8.000000e+00 -1.418420e+00 -3.740065e+00
     vertex -7.000000e+00 -9.572627e-01 -3.883767e+00
   endloop
 endfacet
 facet normal  1.164840e-16 -1.802550e-01 -9.836199e-01
   outer loop
     vertex  8.000000e+00 -4.821467e-01 -3.970835e+00
     vertex -7.000000e+00 -9.572627e-01 -3.883767e+00
     vertex -7.000000e+00 -4.821467e-01 -3.970835e+00
   endloop
 endfacet
 facet normal  1.182077e-16 -6.037850e-02 -9.981756e-01
   outer loop
     vertex  8.000000e+00 -4.821467e-01 -3.970835e+00
     vertex -7.000000e+00 -4.821467e-01 -3.970835e+00
     vertex -7.000000e+00 -9.797174e-16 -4.000000e+00
   endloop
 endfacet
 facet normal  1.168387e-16 -1.802550e-01 -9.836199e-01
   outer loop
     vertex  8.000000e+00 -4.821467e-01 -3.970835e+00
     vertex  8.000000e+00 -9.572627e-01 -3.883767e+00
     vertex -7.000000e+00 -9.572627e-01 -3.883767e+00
   endloop
 endfacet
 facet normal  1.182077e-16 -6.037850e-02 -9.981756e-01
   outer loop
     vertex  8.000000e+00 -9.797174e-16 -4.000000e+00
     vertex  8.000000e+00 -4.821467e-01 -3.970835e+00
     vertex -7.000000e+00 -9.797174e-16 -4.000000e+00
   endloop
 endfacet
endsolid
